<?xml version="1.0" encoding="UTF-8" standalone="no"?>
<!DOCTYPE svg PUBLIC "-//W3C//DTD SVG 1.1//EN"
 "http://www.w3.org/Graphics/SVG/1.1/DTD/svg11.dtd">
<!-- Generated by graphviz version 2.43.0 (0)
 -->
<!-- Title: %3 Pages: 1 -->
<svg width="162pt" height="288pt"
 viewBox="0.00 0.00 161.60 288.00" xmlns="http://www.w3.org/2000/svg" xmlns:xlink="http://www.w3.org/1999/xlink">
<g id="graph0" class="graph" transform="scale(1.15 1.15) rotate(0) translate(4 328)">
<title>%3</title>
<polygon fill="white" stroke="transparent" points="-4,4 -4,-328 182.29,-328 182.29,4 -4,4"/>
<!-- 0 -->
<g id="node1" class="node">
<title>0</title>
<ellipse fill="none" stroke="black" cx="113.29" cy="-306" rx="27" ry="18"/>
<text text-anchor="middle" x="113.29" y="-302.3" font-family="Times,serif" font-size="14.00">i0</text>
</g>
<!-- 1 -->
<g id="node2" class="node">
<title>1</title>
<ellipse fill="none" stroke="black" cx="113.29" cy="-234" rx="64.99" ry="18"/>
<text text-anchor="middle" x="113.29" y="-230.3" font-family="Times,serif" font-size="14.00">Backward_Y, 0</text>
</g>
<!-- 0&#45;&gt;1 -->
<g id="edge1" class="edge">
<title>0&#45;&gt;1</title>
<path fill="none" stroke="black" d="M113.29,-287.7C113.29,-279.98 113.29,-270.71 113.29,-262.11"/>
<polygon fill="black" stroke="black" points="116.79,-262.1 113.29,-252.1 109.79,-262.1 116.79,-262.1"/>
</g>
<!-- 2 -->
<g id="node3" class="node">
<title>2</title>
<ellipse fill="none" stroke="black" cx="66.29" cy="-162" rx="66.09" ry="18"/>
<text text-anchor="middle" x="66.29" y="-158.3" font-family="Times,serif" font-size="14.00">Backward_X, 0</text>
</g>
<!-- 1&#45;&gt;2 -->
<g id="edge2" class="edge">
<title>1&#45;&gt;2</title>
<path fill="none" stroke="black" d="M101.92,-216.05C96.32,-207.71 89.45,-197.49 83.25,-188.25"/>
<polygon fill="black" stroke="black" points="86.05,-186.14 77.57,-179.79 80.24,-190.04 86.05,-186.14"/>
</g>
<!-- 3 -->
<g id="node4" class="node">
<title>3</title>
<ellipse fill="none" stroke="black" cx="113.29" cy="-90" rx="51.99" ry="18"/>
<text text-anchor="middle" x="113.29" y="-86.3" font-family="Times,serif" font-size="14.00">Minus, 0, 0</text>
</g>
<!-- 1&#45;&gt;3 -->
<g id="edge3" class="edge">
<title>1&#45;&gt;3</title>
<path fill="none" stroke="red" d="M124.89,-216.2C131.09,-206.18 138.09,-192.93 141.29,-180 145.14,-164.47 145.14,-159.53 141.29,-144 138.97,-134.61 134.63,-125.04 130.06,-116.67"/>
<polygon fill="red" stroke="red" points="132.95,-114.68 124.89,-107.8 126.9,-118.21 132.95,-114.68"/>
</g>
<!-- 2&#45;&gt;3 -->
<g id="edge4" class="edge">
<title>2&#45;&gt;3</title>
<path fill="none" stroke="blue" d="M77.67,-144.05C83.27,-135.71 90.14,-125.49 96.34,-116.25"/>
<polygon fill="blue" stroke="blue" points="99.35,-118.04 102.02,-107.79 93.54,-114.14 99.35,-118.04"/>
</g>
<!-- 11 -->
<g id="node5" class="node">
<title>11</title>
<ellipse fill="none" stroke="black" cx="113.29" cy="-18" rx="27" ry="18"/>
<text text-anchor="middle" x="113.29" y="-14.3" font-family="Times,serif" font-size="14.00">o0</text>
</g>
<!-- 3&#45;&gt;11 -->
<g id="edge5" class="edge">
<title>3&#45;&gt;11</title>
<path fill="none" stroke="black" d="M113.29,-71.7C113.29,-63.98 113.29,-54.71 113.29,-46.11"/>
<polygon fill="black" stroke="black" points="116.79,-46.1 113.29,-36.1 109.79,-46.1 116.79,-46.1"/>
</g>
</g>
</svg>
