<?xml version="1.0" encoding="UTF-8" standalone="no"?>
<!DOCTYPE svg PUBLIC "-//W3C//DTD SVG 1.1//EN"
 "http://www.w3.org/Graphics/SVG/1.1/DTD/svg11.dtd">
<!-- Generated by graphviz version 2.43.0 (0)
 -->
<!-- Title: %3 Pages: 1 -->
<svg width="306pt" height="260pt"
 viewBox="0.00 0.00 306.39 260.00" xmlns="http://www.w3.org/2000/svg" xmlns:xlink="http://www.w3.org/1999/xlink">
<g id="graph0" class="graph" transform="scale(1 1) rotate(0) translate(4 256)">
<title>%3</title>
<polygon fill="white" stroke="transparent" points="-4,4 -4,-256 302.39,-256 302.39,4 -4,4"/>
<!-- 0 -->
<g id="node1" class="node">
<title>0</title>
<ellipse fill="none" stroke="black" cx="148.54" cy="-234" rx="27" ry="18"/>
<text text-anchor="middle" x="148.54" y="-230.3" font-family="Times,serif" font-size="14.00">i0</text>
</g>
<!-- 1 -->
<g id="node2" class="node">
<title>1</title>
<ellipse fill="none" stroke="black" cx="69.54" cy="-162" rx="69.59" ry="18"/>
<text text-anchor="middle" x="69.54" y="-158.3" font-family="Times,serif" font-size="14.00">Backward_Y, 10</text>
</g>
<!-- 0&#45;&gt;1 -->
<g id="edge1" class="edge">
<title>0&#45;&gt;1</title>
<path fill="none" stroke="black" d="M132.94,-219.17C122.39,-209.82 108.19,-197.25 95.91,-186.37"/>
<polygon fill="black" stroke="black" points="97.98,-183.52 88.18,-179.51 93.34,-188.76 97.98,-183.52"/>
</g>
<!-- 2 -->
<g id="node3" class="node">
<title>2</title>
<ellipse fill="none" stroke="black" cx="227.54" cy="-162" rx="70.69" ry="18"/>
<text text-anchor="middle" x="227.54" y="-158.3" font-family="Times,serif" font-size="14.00">Backward_X, 20</text>
</g>
<!-- 0&#45;&gt;2 -->
<g id="edge2" class="edge">
<title>0&#45;&gt;2</title>
<path fill="none" stroke="black" d="M164.15,-219.17C174.7,-209.82 188.89,-197.25 201.17,-186.37"/>
<polygon fill="black" stroke="black" points="203.75,-188.76 208.91,-179.51 199.11,-183.52 203.75,-188.76"/>
</g>
<!-- 3 -->
<g id="node4" class="node">
<title>3</title>
<ellipse fill="none" stroke="black" cx="148.54" cy="-90" rx="61.19" ry="18"/>
<text text-anchor="middle" x="148.54" y="-86.3" font-family="Times,serif" font-size="14.00">Minus, 40, 30</text>
</g>
<!-- 1&#45;&gt;3 -->
<g id="edge3" class="edge">
<title>1&#45;&gt;3</title>
<path fill="none" stroke="red" d="M88.27,-144.41C98.47,-135.37 111.27,-124.03 122.44,-114.13"/>
<polygon fill="red" stroke="red" points="125.07,-116.48 130.23,-107.23 120.42,-111.24 125.07,-116.48"/>
</g>
<!-- 2&#45;&gt;3 -->
<g id="edge4" class="edge">
<title>2&#45;&gt;3</title>
<path fill="none" stroke="blue" d="M208.82,-144.41C198.61,-135.37 185.82,-124.03 174.65,-114.13"/>
<polygon fill="blue" stroke="blue" points="176.66,-111.24 166.86,-107.23 172.02,-116.48 176.66,-111.24"/>
</g>
<!-- 11 -->
<g id="node5" class="node">
<title>11</title>
<ellipse fill="none" stroke="black" cx="148.54" cy="-18" rx="27" ry="18"/>
<text text-anchor="middle" x="148.54" y="-14.3" font-family="Times,serif" font-size="14.00">o0</text>
</g>
<!-- 3&#45;&gt;11 -->
<g id="edge5" class="edge">
<title>3&#45;&gt;11</title>
<path fill="none" stroke="black" d="M148.54,-71.7C148.54,-63.98 148.54,-54.71 148.54,-46.11"/>
<polygon fill="black" stroke="black" points="152.04,-46.1 148.54,-36.1 145.04,-46.1 152.04,-46.1"/>
</g>
</g>
</svg>
