<?xml version="1.0" encoding="UTF-8" standalone="no"?>
<!DOCTYPE svg PUBLIC "-//W3C//DTD SVG 1.1//EN"
 "http://www.w3.org/Graphics/SVG/1.1/DTD/svg11.dtd">
<!-- Generated by graphviz version 2.43.0 (0)
 -->
<!-- Title: root Pages: 1 -->
<svg width="497pt" height="332pt"
 viewBox="0.00 0.00 496.54 332.00" xmlns="http://www.w3.org/2000/svg" xmlns:xlink="http://www.w3.org/1999/xlink">
<g id="graph0" class="graph" transform="scale(1 1) rotate(0) translate(4 328)">
<title>root</title>
<polygon fill="white" stroke="transparent" points="-4,4 -4,-328 492.54,-328 492.54,4 -4,4"/>
<!-- 0 -->
<g id="node1" class="node">
<title>0</title>
<ellipse fill="none" stroke="black" cx="148.54" cy="-306" rx="27" ry="18"/>
<text text-anchor="middle" x="148.54" y="-302.3" font-family="Times,serif" font-size="14.00">i0</text>
</g>
<!-- 1 -->
<g id="node2" class="node">
<title>1</title>
<ellipse fill="none" stroke="black" cx="69.54" cy="-234" rx="69.59" ry="18"/>
<text text-anchor="middle" x="69.54" y="-230.3" font-family="Times,serif" font-size="14.00">Backward_Y, 10</text>
</g>
<!-- 0&#45;&gt;1 -->
<g id="edge1" class="edge">
<title>0&#45;&gt;1</title>
<path fill="none" stroke="black" d="M132.94,-291.17C122.39,-281.82 108.19,-269.25 95.91,-258.37"/>
<polygon fill="black" stroke="black" points="97.98,-255.52 88.18,-251.51 93.34,-260.76 97.98,-255.52"/>
</g>
<!-- 2 -->
<g id="node3" class="node">
<title>2</title>
<ellipse fill="none" stroke="black" cx="227.54" cy="-234" rx="70.69" ry="18"/>
<text text-anchor="middle" x="227.54" y="-230.3" font-family="Times,serif" font-size="14.00">Backward_X, 20</text>
</g>
<!-- 0&#45;&gt;2 -->
<g id="edge2" class="edge">
<title>0&#45;&gt;2</title>
<path fill="none" stroke="black" d="M164.15,-291.17C174.7,-281.82 188.89,-269.25 201.17,-258.37"/>
<polygon fill="black" stroke="black" points="203.75,-260.76 208.91,-251.51 199.11,-255.52 203.75,-260.76"/>
</g>
<!-- 3 -->
<g id="node4" class="node">
<title>3</title>
<ellipse fill="none" stroke="black" cx="174.54" cy="-162" rx="61.19" ry="18"/>
<text text-anchor="middle" x="174.54" y="-158.3" font-family="Times,serif" font-size="14.00">Minus, 40, 30</text>
</g>
<!-- 1&#45;&gt;3 -->
<g id="edge3" class="edge">
<title>1&#45;&gt;3</title>
<path fill="none" stroke="red" d="M93.63,-216.94C108.14,-207.27 126.79,-194.83 142.53,-184.34"/>
<polygon fill="red" stroke="red" points="144.55,-187.2 150.93,-178.74 140.67,-181.38 144.55,-187.2"/>
</g>
<!-- 2&#45;&gt;3 -->
<g id="edge4" class="edge">
<title>2&#45;&gt;3</title>
<path fill="none" stroke="blue" d="M214.71,-216.05C208.33,-207.63 200.5,-197.28 193.45,-187.97"/>
<polygon fill="blue" stroke="blue" points="196.08,-185.65 187.26,-179.79 190.5,-189.87 196.08,-185.65"/>
</g>
<!-- 11 -->
<g id="node5" class="node">
<title>11</title>
<ellipse fill="none" stroke="black" cx="174.54" cy="-90" rx="27" ry="18"/>
<text text-anchor="middle" x="174.54" y="-86.3" font-family="Times,serif" font-size="14.00">o0</text>
</g>
<!-- 3&#45;&gt;11 -->
<g id="edge5" class="edge">
<title>3&#45;&gt;11</title>
<path fill="none" stroke="black" d="M174.54,-143.7C174.54,-135.98 174.54,-126.71 174.54,-118.11"/>
<polygon fill="black" stroke="black" points="178.04,-118.1 174.54,-108.1 171.04,-118.1 178.04,-118.1"/>
</g>
<!-- 0_gv1 -->
<g id="node6" class="node">
<title>0_gv1</title>
<ellipse fill="none" stroke="black" cx="423.54" cy="-306" rx="27" ry="18"/>
<text text-anchor="middle" x="423.54" y="-302.3" font-family="Times,serif" font-size="14.00">i0</text>
</g>
<!-- 1_gv1 -->
<g id="node7" class="node">
<title>1_gv1</title>
<ellipse fill="none" stroke="black" cx="423.54" cy="-234" rx="64.99" ry="18"/>
<text text-anchor="middle" x="423.54" y="-230.3" font-family="Times,serif" font-size="14.00">Backward_Y, 0</text>
</g>
<!-- 0_gv1&#45;&gt;1_gv1 -->
<g id="edge6" class="edge">
<title>0_gv1&#45;&gt;1_gv1</title>
<path fill="none" stroke="black" d="M423.54,-287.7C423.54,-279.98 423.54,-270.71 423.54,-262.11"/>
<polygon fill="black" stroke="black" points="427.04,-262.1 423.54,-252.1 420.04,-262.1 427.04,-262.1"/>
</g>
<!-- 2_gv1 -->
<g id="node8" class="node">
<title>2_gv1</title>
<ellipse fill="none" stroke="black" cx="376.54" cy="-162" rx="66.09" ry="18"/>
<text text-anchor="middle" x="376.54" y="-158.3" font-family="Times,serif" font-size="14.00">Backward_X, 0</text>
</g>
<!-- 1_gv1&#45;&gt;2_gv1 -->
<g id="edge7" class="edge">
<title>1_gv1&#45;&gt;2_gv1</title>
<path fill="none" stroke="black" d="M412.17,-216.05C406.57,-207.71 399.7,-197.49 393.5,-188.25"/>
<polygon fill="black" stroke="black" points="396.3,-186.14 387.82,-179.79 390.49,-190.04 396.3,-186.14"/>
</g>
<!-- 3_gv1 -->
<g id="node9" class="node">
<title>3_gv1</title>
<ellipse fill="none" stroke="black" cx="423.54" cy="-90" rx="51.99" ry="18"/>
<text text-anchor="middle" x="423.54" y="-86.3" font-family="Times,serif" font-size="14.00">Minus, 0, 0</text>
</g>
<!-- 1_gv1&#45;&gt;3_gv1 -->
<g id="edge8" class="edge">
<title>1_gv1&#45;&gt;3_gv1</title>
<path fill="none" stroke="red" d="M435.14,-216.2C441.34,-206.18 448.34,-192.93 451.54,-180 455.39,-164.47 455.39,-159.53 451.54,-144 449.21,-134.61 444.88,-125.04 440.31,-116.67"/>
<polygon fill="red" stroke="red" points="443.2,-114.68 435.14,-107.8 437.15,-118.21 443.2,-114.68"/>
</g>
<!-- 2_gv1&#45;&gt;3_gv1 -->
<g id="edge9" class="edge">
<title>2_gv1&#45;&gt;3_gv1</title>
<path fill="none" stroke="blue" d="M387.92,-144.05C393.52,-135.71 400.39,-125.49 406.59,-116.25"/>
<polygon fill="blue" stroke="blue" points="409.6,-118.04 412.27,-107.79 403.79,-114.14 409.6,-118.04"/>
</g>
<!-- 11_gv1 -->
<g id="node10" class="node">
<title>11_gv1</title>
<ellipse fill="none" stroke="black" cx="423.54" cy="-18" rx="27" ry="18"/>
<text text-anchor="middle" x="423.54" y="-14.3" font-family="Times,serif" font-size="14.00">o0</text>
</g>
<!-- 3_gv1&#45;&gt;11_gv1 -->
<g id="edge10" class="edge">
<title>3_gv1&#45;&gt;11_gv1</title>
<path fill="none" stroke="black" d="M423.54,-71.7C423.54,-63.98 423.54,-54.71 423.54,-46.11"/>
<polygon fill="black" stroke="black" points="427.04,-46.1 423.54,-36.1 420.04,-46.1 427.04,-46.1"/>
</g>
</g>
</svg>
