<?xml version="1.0" encoding="UTF-8" standalone="no"?>
<!DOCTYPE svg PUBLIC "-//W3C//DTD SVG 1.1//EN"
 "http://www.w3.org/Graphics/SVG/1.1/DTD/svg11.dtd">
<!-- Generated by graphviz version 2.43.0 (0)
 -->
<!-- Title: root Pages: 1 -->
<svg width="349pt" height="476pt"
 viewBox="0.00 0.00 348.60 476.00" xmlns="http://www.w3.org/2000/svg" xmlns:xlink="http://www.w3.org/1999/xlink">
<g id="graph0" class="graph" transform="scale(1 1) rotate(0) translate(4 472)">
<title>root</title>
<polygon fill="white" stroke="transparent" points="-4,4 -4,-472 344.6,-472 344.6,4 -4,4"/>
<!-- 0 -->
<g id="node1" class="node">
<title>0</title>
<ellipse fill="none" stroke="black" cx="135" cy="-450" rx="27" ry="18"/>
<text text-anchor="middle" x="135" y="-446.3" font-family="Times,serif" font-size="14.00">i0</text>
</g>
<!-- 1 -->
<g id="node2" class="node">
<title>1</title>
<ellipse fill="none" stroke="black" cx="75" cy="-378" rx="27" ry="18"/>
<text text-anchor="middle" x="75" y="-374.3" font-family="Times,serif" font-size="14.00">Odd</text>
</g>
<!-- 0&#45;&gt;1 -->
<g id="edge1" class="edge">
<title>0&#45;&gt;1</title>
<path fill="none" stroke="black" d="M121.98,-433.81C113.96,-424.45 103.53,-412.28 94.53,-401.79"/>
<polygon fill="black" stroke="black" points="97.16,-399.47 87.99,-394.16 91.84,-404.03 97.16,-399.47"/>
</g>
<!-- 2 -->
<g id="node3" class="node">
<title>2</title>
<ellipse fill="none" stroke="black" cx="149" cy="-306" rx="28.7" ry="18"/>
<text text-anchor="middle" x="149" y="-302.3" font-family="Times,serif" font-size="14.00">Even</text>
</g>
<!-- 0&#45;&gt;2 -->
<g id="edge2" class="edge">
<title>0&#45;&gt;2</title>
<path fill="none" stroke="black" d="M136.69,-431.87C139.07,-407.67 143.46,-363.21 146.3,-334.39"/>
<polygon fill="black" stroke="black" points="149.81,-334.48 147.31,-324.19 142.84,-333.8 149.81,-334.48"/>
</g>
<!-- 3 -->
<g id="node4" class="node">
<title>3</title>
<ellipse fill="none" stroke="black" cx="75" cy="-306" rx="27" ry="18"/>
<text text-anchor="middle" x="75" y="-302.3" font-family="Times,serif" font-size="14.00">U</text>
</g>
<!-- 1&#45;&gt;3 -->
<g id="edge3" class="edge">
<title>1&#45;&gt;3</title>
<path fill="none" stroke="black" d="M75,-359.7C75,-351.98 75,-342.71 75,-334.11"/>
<polygon fill="black" stroke="black" points="78.5,-334.1 75,-324.1 71.5,-334.1 78.5,-334.1"/>
</g>
<!-- 5 -->
<g id="node5" class="node">
<title>5</title>
<ellipse fill="none" stroke="black" cx="27" cy="-162" rx="27" ry="18"/>
<text text-anchor="middle" x="27" y="-158.3" font-family="Times,serif" font-size="14.00">Plus</text>
</g>
<!-- 1&#45;&gt;5 -->
<g id="edge4" class="edge">
<title>1&#45;&gt;5</title>
<path fill="none" stroke="red" d="M61.61,-361.95C53.54,-351.94 43.91,-338.07 39,-324 23.33,-279.06 23.17,-222.9 24.84,-190.18"/>
<polygon fill="red" stroke="red" points="28.34,-190.23 25.45,-180.03 21.35,-189.8 28.34,-190.23"/>
</g>
<!-- 4 -->
<g id="node6" class="node">
<title>4</title>
<ellipse fill="none" stroke="black" cx="82" cy="-234" rx="33.6" ry="18"/>
<text text-anchor="middle" x="82" y="-230.3" font-family="Times,serif" font-size="14.00">Minus</text>
</g>
<!-- 2&#45;&gt;4 -->
<g id="edge5" class="edge">
<title>2&#45;&gt;4</title>
<path fill="none" stroke="red" d="M134.79,-290.15C125.77,-280.72 113.91,-268.33 103.71,-257.69"/>
<polygon fill="red" stroke="red" points="106.09,-255.11 96.65,-250.31 101.04,-259.95 106.09,-255.11"/>
</g>
<!-- 3&#45;&gt;4 -->
<g id="edge6" class="edge">
<title>3&#45;&gt;4</title>
<path fill="none" stroke="blue" d="M76.73,-287.7C77.5,-279.98 78.43,-270.71 79.29,-262.11"/>
<polygon fill="blue" stroke="blue" points="82.78,-262.4 80.29,-252.1 75.81,-261.71 82.78,-262.4"/>
</g>
<!-- 6 -->
<g id="node7" class="node">
<title>6</title>
<ellipse fill="none" stroke="black" cx="55" cy="-90" rx="34.39" ry="18"/>
<text text-anchor="middle" x="55" y="-86.3" font-family="Times,serif" font-size="14.00">Merge</text>
</g>
<!-- 5&#45;&gt;6 -->
<g id="edge9" class="edge">
<title>5&#45;&gt;6</title>
<path fill="none" stroke="blue" d="M33.64,-144.41C36.87,-136.34 40.83,-126.43 44.46,-117.35"/>
<polygon fill="blue" stroke="blue" points="47.75,-118.54 48.22,-107.96 41.25,-115.94 47.75,-118.54"/>
</g>
<!-- 4&#45;&gt;5 -->
<g id="edge7" class="edge">
<title>4&#45;&gt;5</title>
<path fill="none" stroke="blue" d="M69.52,-217.12C62.39,-208.04 53.31,-196.49 45.38,-186.39"/>
<polygon fill="blue" stroke="blue" points="47.98,-184.04 39.05,-178.34 42.48,-188.37 47.98,-184.04"/>
</g>
<!-- 4&#45;&gt;6 -->
<g id="edge8" class="edge">
<title>4&#45;&gt;6</title>
<path fill="none" stroke="red" d="M78.74,-215.87C74.14,-191.67 65.69,-147.21 60.21,-118.39"/>
<polygon fill="red" stroke="red" points="63.57,-117.36 58.27,-108.19 56.7,-118.67 63.57,-117.36"/>
</g>
<!-- 7 -->
<g id="node8" class="node">
<title>7</title>
<ellipse fill="none" stroke="black" cx="55" cy="-18" rx="27" ry="18"/>
<text text-anchor="middle" x="55" y="-14.3" font-family="Times,serif" font-size="14.00">o0</text>
</g>
<!-- 6&#45;&gt;7 -->
<g id="edge10" class="edge">
<title>6&#45;&gt;7</title>
<path fill="none" stroke="black" d="M55,-71.7C55,-63.98 55,-54.71 55,-46.11"/>
<polygon fill="black" stroke="black" points="58.5,-46.1 55,-36.1 51.5,-46.1 58.5,-46.1"/>
</g>
<!-- 0_gv1 -->
<g id="node9" class="node">
<title>0_gv1</title>
<ellipse fill="none" stroke="black" cx="242" cy="-450" rx="27" ry="18"/>
<text text-anchor="middle" x="242" y="-446.3" font-family="Times,serif" font-size="14.00">i0</text>
</g>
<!-- 1_gv1 -->
<g id="node10" class="node">
<title>1_gv1</title>
<ellipse fill="none" stroke="black" cx="238" cy="-378" rx="27" ry="18"/>
<text text-anchor="middle" x="238" y="-374.3" font-family="Times,serif" font-size="14.00">Odd</text>
</g>
<!-- 0_gv1&#45;&gt;1_gv1 -->
<g id="edge11" class="edge">
<title>0_gv1&#45;&gt;1_gv1</title>
<path fill="none" stroke="black" d="M241.01,-431.7C240.57,-423.98 240.04,-414.71 239.55,-406.11"/>
<polygon fill="black" stroke="black" points="243.04,-405.89 238.98,-396.1 236.05,-406.29 243.04,-405.89"/>
</g>
<!-- 2_gv1 -->
<g id="node11" class="node">
<title>2_gv1</title>
<ellipse fill="none" stroke="black" cx="312" cy="-378" rx="28.7" ry="18"/>
<text text-anchor="middle" x="312" y="-374.3" font-family="Times,serif" font-size="14.00">Even</text>
</g>
<!-- 0_gv1&#45;&gt;2_gv1 -->
<g id="edge12" class="edge">
<title>0_gv1&#45;&gt;2_gv1</title>
<path fill="none" stroke="black" d="M256.5,-434.5C266.14,-424.86 278.96,-412.04 289.86,-401.14"/>
<polygon fill="black" stroke="black" points="292.44,-403.51 297.03,-393.97 287.49,-398.56 292.44,-403.51"/>
</g>
<!-- 3_gv1 -->
<g id="node12" class="node">
<title>3_gv1</title>
<ellipse fill="none" stroke="black" cx="244" cy="-306" rx="33.6" ry="18"/>
<text text-anchor="middle" x="244" y="-302.3" font-family="Times,serif" font-size="14.00">Minus</text>
</g>
<!-- 1_gv1&#45;&gt;3_gv1 -->
<g id="edge13" class="edge">
<title>1_gv1&#45;&gt;3_gv1</title>
<path fill="none" stroke="red" d="M239.48,-359.7C240.14,-351.98 240.94,-342.71 241.68,-334.11"/>
<polygon fill="red" stroke="red" points="245.17,-334.37 242.53,-324.1 238.19,-333.77 245.17,-334.37"/>
</g>
<!-- 2_gv1&#45;&gt;3_gv1 -->
<g id="edge14" class="edge">
<title>2_gv1&#45;&gt;3_gv1</title>
<path fill="none" stroke="blue" d="M297.58,-362.15C288.42,-352.72 276.38,-340.33 266.04,-329.69"/>
<polygon fill="blue" stroke="blue" points="268.35,-327.04 258.87,-322.31 263.33,-331.92 268.35,-327.04"/>
</g>
<!-- 5_gv1 -->
<g id="node13" class="node">
<title>5_gv1</title>
<ellipse fill="none" stroke="black" cx="257" cy="-162" rx="27" ry="18"/>
<text text-anchor="middle" x="257" y="-158.3" font-family="Times,serif" font-size="14.00">Plus</text>
</g>
<!-- 2_gv1&#45;&gt;5_gv1 -->
<g id="edge15" class="edge">
<title>2_gv1&#45;&gt;5_gv1</title>
<path fill="none" stroke="red" d="M312.6,-359.93C313.09,-329.84 311.59,-265.84 293,-216 289.09,-205.53 282.7,-195.11 276.39,-186.32"/>
<polygon fill="red" stroke="red" points="279.01,-183.98 270.19,-178.12 273.43,-188.21 279.01,-183.98"/>
</g>
<!-- 4_gv1 -->
<g id="node14" class="node">
<title>4_gv1</title>
<ellipse fill="none" stroke="black" cx="257" cy="-234" rx="27" ry="18"/>
<text text-anchor="middle" x="257" y="-230.3" font-family="Times,serif" font-size="14.00">U</text>
</g>
<!-- 3_gv1&#45;&gt;4_gv1 -->
<g id="edge16" class="edge">
<title>3_gv1&#45;&gt;4_gv1</title>
<path fill="none" stroke="black" d="M247.15,-288.05C248.58,-280.35 250.31,-271.03 251.92,-262.36"/>
<polygon fill="black" stroke="black" points="255.41,-262.75 253.79,-252.28 248.52,-261.47 255.41,-262.75"/>
</g>
<!-- 6_gv1 -->
<g id="node15" class="node">
<title>6_gv1</title>
<ellipse fill="none" stroke="black" cx="229" cy="-90" rx="34.39" ry="18"/>
<text text-anchor="middle" x="229" y="-86.3" font-family="Times,serif" font-size="14.00">Merge</text>
</g>
<!-- 3_gv1&#45;&gt;6_gv1 -->
<g id="edge17" class="edge">
<title>3_gv1&#45;&gt;6_gv1</title>
<path fill="none" stroke="blue" d="M234.7,-288.4C229.54,-278.24 223.65,-264.77 221,-252 211.39,-205.72 217.94,-150.42 223.52,-118.15"/>
<polygon fill="blue" stroke="blue" points="226.99,-118.61 225.34,-108.14 220.1,-117.35 226.99,-118.61"/>
</g>
<!-- 5_gv1&#45;&gt;6_gv1 -->
<g id="edge19" class="edge">
<title>5_gv1&#45;&gt;6_gv1</title>
<path fill="none" stroke="red" d="M250.36,-144.41C247.13,-136.34 243.17,-126.43 239.54,-117.35"/>
<polygon fill="red" stroke="red" points="242.75,-115.94 235.78,-107.96 236.25,-118.54 242.75,-115.94"/>
</g>
<!-- 4_gv1&#45;&gt;5_gv1 -->
<g id="edge18" class="edge">
<title>4_gv1&#45;&gt;5_gv1</title>
<path fill="none" stroke="blue" d="M257,-215.7C257,-207.98 257,-198.71 257,-190.11"/>
<polygon fill="blue" stroke="blue" points="260.5,-190.1 257,-180.1 253.5,-190.1 260.5,-190.1"/>
</g>
<!-- 7_gv1 -->
<g id="node16" class="node">
<title>7_gv1</title>
<ellipse fill="none" stroke="black" cx="229" cy="-18" rx="27" ry="18"/>
<text text-anchor="middle" x="229" y="-14.3" font-family="Times,serif" font-size="14.00">o0</text>
</g>
<!-- 6_gv1&#45;&gt;7_gv1 -->
<g id="edge20" class="edge">
<title>6_gv1&#45;&gt;7_gv1</title>
<path fill="none" stroke="black" d="M229,-71.7C229,-63.98 229,-54.71 229,-46.11"/>
<polygon fill="black" stroke="black" points="232.5,-46.1 229,-36.1 225.5,-46.1 232.5,-46.1"/>
</g>
</g>
</svg>
