<?xml version="1.0" encoding="UTF-8" standalone="no"?>
<!DOCTYPE svg PUBLIC "-//W3C//DTD SVG 1.1//EN"
 "http://www.w3.org/Graphics/SVG/1.1/DTD/svg11.dtd">
<!-- Generated by graphviz version 2.43.0 (0)
 -->
<!-- Title: %3 Pages: 1 -->
<svg width="186pt" height="476pt"
 viewBox="0.00 0.00 185.60 476.00" xmlns="http://www.w3.org/2000/svg" xmlns:xlink="http://www.w3.org/1999/xlink">
<g id="graph0" class="graph" transform="scale(1 1) rotate(0) translate(4 472)">
<title>%3</title>
<polygon fill="white" stroke="transparent" points="-4,4 -4,-472 181.6,-472 181.6,4 -4,4"/>
<!-- 0 -->
<g id="node1" class="node">
<title>0</title>
<ellipse fill="none" stroke="black" cx="102" cy="-450" rx="27" ry="18"/>
<text text-anchor="middle" x="102" y="-446.3" font-family="Times,serif" font-size="14.00">i0</text>
</g>
<!-- 1 -->
<g id="node2" class="node">
<title>1</title>
<ellipse fill="none" stroke="black" cx="75" cy="-378" rx="27" ry="18"/>
<text text-anchor="middle" x="75" y="-374.3" font-family="Times,serif" font-size="14.00">Odd</text>
</g>
<!-- 0&#45;&gt;1 -->
<g id="edge1" class="edge">
<title>0&#45;&gt;1</title>
<path fill="none" stroke="black" d="M95.6,-432.41C92.49,-424.34 88.67,-414.43 85.17,-405.35"/>
<polygon fill="black" stroke="black" points="88.4,-404.03 81.54,-395.96 81.87,-406.55 88.4,-404.03"/>
</g>
<!-- 2 -->
<g id="node3" class="node">
<title>2</title>
<ellipse fill="none" stroke="black" cx="149" cy="-306" rx="28.7" ry="18"/>
<text text-anchor="middle" x="149" y="-302.3" font-family="Times,serif" font-size="14.00">Even</text>
</g>
<!-- 0&#45;&gt;2 -->
<g id="edge2" class="edge">
<title>0&#45;&gt;2</title>
<path fill="none" stroke="black" d="M107.58,-432.15C115.63,-407.81 130.61,-362.57 140.17,-333.67"/>
<polygon fill="black" stroke="black" points="143.61,-334.42 143.43,-323.82 136.97,-332.22 143.61,-334.42"/>
</g>
<!-- 3 -->
<g id="node4" class="node">
<title>3</title>
<ellipse fill="none" stroke="black" cx="75" cy="-306" rx="27" ry="18"/>
<text text-anchor="middle" x="75" y="-302.3" font-family="Times,serif" font-size="14.00">U</text>
</g>
<!-- 1&#45;&gt;3 -->
<g id="edge3" class="edge">
<title>1&#45;&gt;3</title>
<path fill="none" stroke="black" d="M75,-359.7C75,-351.98 75,-342.71 75,-334.11"/>
<polygon fill="black" stroke="black" points="78.5,-334.1 75,-324.1 71.5,-334.1 78.5,-334.1"/>
</g>
<!-- 5 -->
<g id="node6" class="node">
<title>5</title>
<ellipse fill="none" stroke="black" cx="27" cy="-162" rx="27" ry="18"/>
<text text-anchor="middle" x="27" y="-158.3" font-family="Times,serif" font-size="14.00">Plus</text>
</g>
<!-- 1&#45;&gt;5 -->
<g id="edge6" class="edge">
<title>1&#45;&gt;5</title>
<path fill="none" stroke="red" d="M61.61,-361.95C53.54,-351.94 43.91,-338.07 39,-324 23.33,-279.06 23.17,-222.9 24.84,-190.18"/>
<polygon fill="red" stroke="red" points="28.34,-190.23 25.45,-180.03 21.35,-189.8 28.34,-190.23"/>
</g>
<!-- 4 -->
<g id="node5" class="node">
<title>4</title>
<ellipse fill="none" stroke="black" cx="82" cy="-234" rx="33.6" ry="18"/>
<text text-anchor="middle" x="82" y="-230.3" font-family="Times,serif" font-size="14.00">Minus</text>
</g>
<!-- 2&#45;&gt;4 -->
<g id="edge4" class="edge">
<title>2&#45;&gt;4</title>
<path fill="none" stroke="red" d="M134.79,-290.15C125.77,-280.72 113.91,-268.33 103.71,-257.69"/>
<polygon fill="red" stroke="red" points="106.09,-255.11 96.65,-250.31 101.04,-259.95 106.09,-255.11"/>
</g>
<!-- 3&#45;&gt;4 -->
<g id="edge5" class="edge">
<title>3&#45;&gt;4</title>
<path fill="none" stroke="blue" d="M76.73,-287.7C77.5,-279.98 78.43,-270.71 79.29,-262.11"/>
<polygon fill="blue" stroke="blue" points="82.78,-262.4 80.29,-252.1 75.81,-261.71 82.78,-262.4"/>
</g>
<!-- 4&#45;&gt;5 -->
<g id="edge7" class="edge">
<title>4&#45;&gt;5</title>
<path fill="none" stroke="blue" d="M69.52,-217.12C62.39,-208.04 53.31,-196.49 45.38,-186.39"/>
<polygon fill="blue" stroke="blue" points="47.98,-184.04 39.05,-178.34 42.48,-188.37 47.98,-184.04"/>
</g>
<!-- 6 -->
<g id="node7" class="node">
<title>6</title>
<ellipse fill="none" stroke="black" cx="54" cy="-90" rx="34.39" ry="18"/>
<text text-anchor="middle" x="54" y="-86.3" font-family="Times,serif" font-size="14.00">Merge</text>
</g>
<!-- 4&#45;&gt;6 -->
<g id="edge8" class="edge">
<title>4&#45;&gt;6</title>
<path fill="none" stroke="red" d="M78.62,-215.87C73.83,-191.56 65.01,-146.82 59.33,-118.01"/>
<polygon fill="red" stroke="red" points="62.76,-117.32 57.39,-108.19 55.89,-118.68 62.76,-117.32"/>
</g>
<!-- 5&#45;&gt;6 -->
<g id="edge9" class="edge">
<title>5&#45;&gt;6</title>
<path fill="none" stroke="blue" d="M33.4,-144.41C36.51,-136.34 40.33,-126.43 43.83,-117.35"/>
<polygon fill="blue" stroke="blue" points="47.13,-118.55 47.46,-107.96 40.6,-116.03 47.13,-118.55"/>
</g>
<!-- 7 -->
<g id="node8" class="node">
<title>7</title>
<ellipse fill="none" stroke="black" cx="54" cy="-18" rx="27" ry="18"/>
<text text-anchor="middle" x="54" y="-14.3" font-family="Times,serif" font-size="14.00">o0</text>
</g>
<!-- 6&#45;&gt;7 -->
<g id="edge10" class="edge">
<title>6&#45;&gt;7</title>
<path fill="none" stroke="black" d="M54,-71.7C54,-63.98 54,-54.71 54,-46.11"/>
<polygon fill="black" stroke="black" points="57.5,-46.1 54,-36.1 50.5,-46.1 57.5,-46.1"/>
</g>
</g>
</svg>
