<?xml version="1.0" encoding="UTF-8" standalone="no"?>
<!DOCTYPE svg PUBLIC "-//W3C//DTD SVG 1.1//EN"
 "http://www.w3.org/Graphics/SVG/1.1/DTD/svg11.dtd">
<!-- Generated by graphviz version 2.43.0 (0)
 -->
<!-- Title: %3 Pages: 1 -->
<svg width="154pt" height="476pt"
 viewBox="0.00 0.00 154.04 476.00" xmlns="http://www.w3.org/2000/svg" xmlns:xlink="http://www.w3.org/1999/xlink">
<g id="graph0" class="graph" transform="scale(1 1) rotate(0) translate(4 472)">
<title>%3</title>
<polygon fill="white" stroke="transparent" points="-4,4 -4,-472 150.04,-472 150.04,4 -4,4"/>
<!-- 0 -->
<g id="node1" class="node">
<title>0</title>
<ellipse fill="none" stroke="black" cx="80.45" cy="-450" rx="27" ry="18"/>
<text text-anchor="middle" x="80.45" y="-446.3" font-family="Times,serif" font-size="14.00">i0</text>
</g>
<!-- 1 -->
<g id="node2" class="node">
<title>1</title>
<ellipse fill="none" stroke="black" cx="43.45" cy="-378" rx="27" ry="18"/>
<text text-anchor="middle" x="43.45" y="-374.3" font-family="Times,serif" font-size="14.00">Odd</text>
</g>
<!-- 0&#45;&gt;1 -->
<g id="edge1" class="edge">
<title>0&#45;&gt;1</title>
<path fill="none" stroke="black" d="M71.87,-432.76C67.38,-424.28 61.8,-413.71 56.77,-404.2"/>
<polygon fill="black" stroke="black" points="59.75,-402.35 51.98,-395.15 53.56,-405.62 59.75,-402.35"/>
</g>
<!-- 2 -->
<g id="node3" class="node">
<title>2</title>
<ellipse fill="none" stroke="black" cx="117.45" cy="-378" rx="28.7" ry="18"/>
<text text-anchor="middle" x="117.45" y="-374.3" font-family="Times,serif" font-size="14.00">Even</text>
</g>
<!-- 0&#45;&gt;2 -->
<g id="edge2" class="edge">
<title>0&#45;&gt;2</title>
<path fill="none" stroke="black" d="M89.03,-432.76C93.45,-424.4 98.94,-414.02 103.91,-404.61"/>
<polygon fill="black" stroke="black" points="107.08,-406.11 108.66,-395.63 100.89,-402.84 107.08,-406.11"/>
</g>
<!-- 3 -->
<g id="node4" class="node">
<title>3</title>
<ellipse fill="none" stroke="black" cx="49.45" cy="-306" rx="33.6" ry="18"/>
<text text-anchor="middle" x="49.45" y="-302.3" font-family="Times,serif" font-size="14.00">Minus</text>
</g>
<!-- 1&#45;&gt;3 -->
<g id="edge3" class="edge">
<title>1&#45;&gt;3</title>
<path fill="none" stroke="red" d="M44.93,-359.7C45.59,-351.98 46.39,-342.71 47.12,-334.11"/>
<polygon fill="red" stroke="red" points="50.61,-334.37 47.98,-324.1 43.64,-333.77 50.61,-334.37"/>
</g>
<!-- 2&#45;&gt;3 -->
<g id="edge4" class="edge">
<title>2&#45;&gt;3</title>
<path fill="none" stroke="blue" d="M103.03,-362.15C93.87,-352.72 81.83,-340.33 71.48,-329.69"/>
<polygon fill="blue" stroke="blue" points="73.8,-327.04 64.32,-322.31 68.77,-331.92 73.8,-327.04"/>
</g>
<!-- 5 -->
<g id="node6" class="node">
<title>5</title>
<ellipse fill="none" stroke="black" cx="62.45" cy="-162" rx="27" ry="18"/>
<text text-anchor="middle" x="62.45" y="-158.3" font-family="Times,serif" font-size="14.00">Plus</text>
</g>
<!-- 2&#45;&gt;5 -->
<g id="edge6" class="edge">
<title>2&#45;&gt;5</title>
<path fill="none" stroke="red" d="M118.04,-359.93C118.54,-329.84 117.04,-265.84 98.45,-216 94.54,-205.53 88.15,-195.11 81.83,-186.32"/>
<polygon fill="red" stroke="red" points="84.46,-183.98 75.63,-178.12 78.88,-188.21 84.46,-183.98"/>
</g>
<!-- 4 -->
<g id="node5" class="node">
<title>4</title>
<ellipse fill="none" stroke="black" cx="62.45" cy="-234" rx="27" ry="18"/>
<text text-anchor="middle" x="62.45" y="-230.3" font-family="Times,serif" font-size="14.00">U</text>
</g>
<!-- 3&#45;&gt;4 -->
<g id="edge5" class="edge">
<title>3&#45;&gt;4</title>
<path fill="none" stroke="black" d="M52.59,-288.05C54.03,-280.35 55.76,-271.03 57.37,-262.36"/>
<polygon fill="black" stroke="black" points="60.85,-262.75 59.24,-252.28 53.97,-261.47 60.85,-262.75"/>
</g>
<!-- 6 -->
<g id="node7" class="node">
<title>6</title>
<ellipse fill="none" stroke="black" cx="34.45" cy="-90" rx="34.39" ry="18"/>
<text text-anchor="middle" x="34.45" y="-86.3" font-family="Times,serif" font-size="14.00">Merge</text>
</g>
<!-- 3&#45;&gt;6 -->
<g id="edge9" class="edge">
<title>3&#45;&gt;6</title>
<path fill="none" stroke="blue" d="M40.14,-288.4C34.99,-278.24 29.1,-264.77 26.45,-252 16.84,-205.72 23.39,-150.42 28.96,-118.15"/>
<polygon fill="blue" stroke="blue" points="32.44,-118.61 30.79,-108.14 25.55,-117.35 32.44,-118.61"/>
</g>
<!-- 4&#45;&gt;5 -->
<g id="edge7" class="edge">
<title>4&#45;&gt;5</title>
<path fill="none" stroke="blue" d="M62.45,-215.7C62.45,-207.98 62.45,-198.71 62.45,-190.11"/>
<polygon fill="blue" stroke="blue" points="65.95,-190.1 62.45,-180.1 58.95,-190.1 65.95,-190.1"/>
</g>
<!-- 5&#45;&gt;6 -->
<g id="edge8" class="edge">
<title>5&#45;&gt;6</title>
<path fill="none" stroke="red" d="M55.81,-144.41C52.58,-136.34 48.62,-126.43 44.99,-117.35"/>
<polygon fill="red" stroke="red" points="48.19,-115.94 41.23,-107.96 41.69,-118.54 48.19,-115.94"/>
</g>
<!-- 7 -->
<g id="node8" class="node">
<title>7</title>
<ellipse fill="none" stroke="black" cx="34.45" cy="-18" rx="27" ry="18"/>
<text text-anchor="middle" x="34.45" y="-14.3" font-family="Times,serif" font-size="14.00">o0</text>
</g>
<!-- 6&#45;&gt;7 -->
<g id="edge10" class="edge">
<title>6&#45;&gt;7</title>
<path fill="none" stroke="black" d="M34.45,-71.7C34.45,-63.98 34.45,-54.71 34.45,-46.11"/>
<polygon fill="black" stroke="black" points="37.95,-46.1 34.45,-36.1 30.95,-46.1 37.95,-46.1"/>
</g>
</g>
</svg>
